<svg width="261" height="144" viewBox="0 0 261 144" fill="none" xmlns="http://www.w3.org/2000/svg">
<g clip-path="url(#clip0_513_289)">
<path d="M56.9876 53.8977L57.4897 56.1154L57.811 54.0568L60.25 41.9242L62.1427 41.7766L66.3515 53.3907L66.9792 55.4105L67.1628 53.0924L68.8956 41.2499L71.1505 41.074L68.3531 58.4065L66.3085 58.566L61.8367 46.4434L61.4668 45.1675L61.2993 46.4853L58.6326 59.1647L56.588 59.3241L51.1487 42.6341L53.3919 42.4591L56.9876 53.8977ZM75.9335 46.6369C76.7998 45.3861 78.0001 44.7008 79.5345 44.5811C82.2061 44.3728 83.6711 45.7748 83.9296 48.7873L84.5811 57.1408L82.4197 57.3094L81.7673 48.9442C81.6884 48.0335 81.4256 47.3761 80.9787 46.9722C80.5397 46.5676 79.8879 46.399 79.0233 46.4664C78.3223 46.5211 77.7216 46.756 77.2211 47.1712C76.7206 47.5864 76.3461 48.1093 76.0975 48.7399L76.8001 57.7477L74.6387 57.9163L73.239 39.9708L75.4004 39.8022L75.9335 46.6369ZM93.0814 56.7129C91.3679 56.8466 89.9299 56.3945 88.7676 55.3567C87.6046 54.3112 86.9496 52.846 86.8026 50.9611L86.7716 50.5638C86.6738 49.3098 86.8242 48.1736 87.2228 47.1552C87.6286 46.1283 88.2383 45.305 89.0519 44.6851C89.8727 44.0569 90.7855 43.7036 91.7903 43.6252C93.4337 43.4971 94.7533 43.9388 95.749 44.9503C96.7448 45.9619 97.3213 47.4764 97.4787 49.4937L97.5488 50.3933L88.985 51.0612C89.1133 52.305 89.5542 53.2854 90.3075 54.0024C91.0681 54.7111 91.9858 55.0235 93.0606 54.9396C93.8239 54.8801 94.4583 54.6739 94.9636 54.321C95.4689 53.9682 95.9002 53.5192 96.2573 52.9742L97.6577 53.8993C96.7254 55.6098 95.2 56.5477 93.0814 56.7129ZM91.9288 45.4011C91.0564 45.4691 90.3492 45.8456 89.807 46.5304C89.2643 47.2075 88.9675 48.124 88.9166 49.2799L95.2489 48.786L95.2362 48.6224C95.0882 47.5291 94.726 46.7032 94.1496 46.1447C93.5726 45.5785 92.8323 45.3306 91.9288 45.4011ZM105.781 44.7203C105.45 44.6913 105.093 44.6917 104.712 44.7215C103.294 44.832 102.379 45.5107 101.967 46.7575L102.667 55.7302L100.505 55.8988L99.5195 43.2575L101.622 43.0935L101.771 44.5511C102.392 43.3665 103.353 42.7234 104.654 42.622C105.074 42.5892 105.398 42.6188 105.624 42.7108L105.781 44.7203ZM113.644 55.1091C111.93 55.2428 110.492 54.7907 109.33 53.753C108.167 52.7074 107.512 51.2422 107.365 49.3573L107.334 48.9601C107.236 47.7061 107.387 46.5698 107.785 45.5514C108.191 44.5245 108.801 43.7012 109.614 43.0814C110.435 42.4531 111.348 42.0998 112.353 42.0215C113.996 41.8933 115.316 42.335 116.312 43.3466C117.307 44.3581 117.884 45.8726 118.041 47.8899L118.111 48.7895L109.548 49.4574C109.676 50.7012 110.117 51.6816 110.87 52.3987C111.631 53.1073 112.548 53.4197 113.623 53.3359C114.386 53.2763 115.021 53.0701 115.526 52.7173C116.032 52.3644 116.463 51.9154 116.82 51.3704L118.22 52.2955C117.288 54.006 115.763 54.9439 113.644 55.1091ZM112.491 43.7973C111.619 43.8654 110.912 44.2418 110.37 44.9267C109.827 45.6037 109.53 46.5202 109.479 47.6761L115.811 47.1822L115.799 47.0186C115.651 45.9253 115.289 45.0994 114.712 44.541C114.135 43.9747 113.395 43.7269 112.491 43.7973ZM129.351 53.6489L127.19 53.8175L126.204 41.1762L128.365 41.0076L129.351 53.6489ZM125.767 37.8368C125.74 37.4863 125.822 37.1821 126.013 36.9243C126.213 36.6658 126.523 36.5202 126.943 36.4874C127.364 36.4546 127.693 36.5504 127.93 36.7748C128.166 36.9993 128.299 37.2867 128.326 37.6372C128.353 37.9877 128.267 38.2883 128.067 38.539C127.867 38.7897 127.557 38.9314 127.136 38.9642C126.716 38.997 126.387 38.9051 126.151 38.6884C125.923 38.4712 125.795 38.1873 125.767 37.8368ZM139.92 49.4511C139.875 48.867 139.617 48.4325 139.149 48.1478C138.687 47.8547 137.898 47.6341 136.781 47.4861C135.673 47.3375 134.782 47.1248 134.11 46.8481C133.446 46.5708 132.941 46.2184 132.594 45.791C132.255 45.3629 132.061 44.8373 132.013 44.2142C131.932 43.1783 132.3 42.268 133.116 41.4834C133.94 40.6982 135.034 40.2524 136.397 40.1461C137.83 40.0344 139.02 40.3138 139.965 40.9845C140.919 41.6546 141.44 42.566 141.53 43.7187L139.357 43.8882C139.311 43.2963 139.018 42.8059 138.478 42.417C137.946 42.0274 137.299 41.8625 136.535 41.922C135.749 41.9834 135.147 42.2027 134.73 42.58C134.312 42.9574 134.125 43.4225 134.168 43.9756C134.209 44.4974 134.446 44.8746 134.88 45.1073C135.313 45.3399 136.077 45.535 137.17 45.6926C138.272 45.8496 139.171 46.0695 139.867 46.3522C140.563 46.6348 141.089 47.0013 141.445 47.4515C141.809 47.8933 142.017 48.453 142.07 49.1307C142.158 50.26 141.777 51.2027 140.927 51.9586C140.076 52.7067 138.93 53.1369 137.49 53.2493C136.477 53.3283 135.567 53.219 134.76 52.9215C133.954 52.6239 133.303 52.1731 132.81 51.5691C132.323 50.9566 132.05 50.2765 131.992 49.5288L134.154 49.3602C134.249 50.0815 134.582 50.6354 135.153 51.0219C135.731 51.4 136.464 51.5544 137.352 51.4851C138.17 51.4213 138.811 51.2067 139.276 50.8413C139.749 50.4675 139.963 50.0041 139.92 49.4511ZM154.683 46.278L155.185 48.4956L155.507 46.4371L157.945 34.3044L159.838 34.1568L164.047 45.7709L164.675 47.7907L164.858 45.4726L166.591 33.6301L168.846 33.4542L166.049 50.7867L164.004 50.9462L159.532 38.8236L159.162 37.5477L158.995 38.8656L156.328 51.5449L154.283 51.7044L148.844 35.0143L151.087 34.8393L154.683 46.278ZM180.139 49.6878C179.995 49.4483 179.859 49.0122 179.731 48.3796C178.808 49.5017 177.649 50.1171 176.255 50.2258C175.008 50.323 173.957 50.0524 173.1 49.414C172.25 48.7671 171.783 47.9024 171.699 46.8198C171.596 45.5034 172.015 44.4442 172.955 43.6421C173.903 42.8316 175.284 42.3556 177.099 42.214L179.202 42.05L179.125 41.0569C179.066 40.3014 178.793 39.7193 178.307 39.3105C177.82 38.894 177.136 38.7201 176.256 38.7887C175.485 38.8489 174.853 39.094 174.362 39.5242C173.871 39.9543 173.646 40.4459 173.689 40.9989L171.516 41.1684C171.467 40.5375 171.642 39.9126 172.04 39.2939C172.446 38.6667 173.017 38.1519 173.753 37.7497C174.498 37.3469 175.33 37.1096 176.249 37.0379C177.705 36.9243 178.875 37.2014 179.757 37.8691C180.64 38.5291 181.146 39.4966 181.277 40.7715L181.731 46.5898C181.821 47.7503 182.041 48.6617 182.391 49.3241L182.405 49.511L180.139 49.6878ZM176.423 48.3202C177.101 48.2673 177.73 48.042 178.31 47.6441C178.89 47.2462 179.295 46.7562 179.524 46.1742L179.321 43.5805L177.627 43.7126C174.979 43.9192 173.715 44.7974 173.836 46.3474C173.889 47.025 174.156 47.5371 174.638 47.8835C175.119 48.2299 175.715 48.3755 176.423 48.3202ZM187.698 49.0982L185.536 49.2668L184.137 31.3213L186.298 31.1527L187.698 49.0982ZM190.141 42.4428C189.989 40.5034 190.327 38.9098 191.155 37.662C191.982 36.4064 193.139 35.7206 194.626 35.6045C196.106 35.4891 197.318 35.9039 198.262 36.8491L197.748 30.2597L199.909 30.0911L201.309 48.0366L199.322 48.1915L199.112 46.8445C198.33 47.9712 197.168 48.5947 195.625 48.715C194.161 48.8292 192.919 48.3227 191.898 47.1955C190.886 46.0677 190.304 44.538 190.153 42.6064L190.141 42.4428ZM192.321 42.5196C192.433 43.9527 192.816 45.0512 193.472 45.8151C194.127 46.579 194.976 46.9202 196.02 46.8388C197.391 46.7319 198.344 46.0385 198.878 44.7586L198.426 38.9521C197.686 37.8108 196.647 37.2924 195.307 37.3969C194.248 37.4795 193.454 37.9528 192.926 38.8168C192.398 39.6808 192.196 40.9151 192.321 42.5196ZM203.599 41.3814C203.502 40.1429 203.657 39.0103 204.063 37.9834C204.476 36.956 205.094 36.1398 205.917 35.535C206.747 34.9295 207.719 34.5833 208.833 34.4965C210.555 34.3622 211.991 34.8496 213.144 35.9587C214.304 37.0672 214.961 38.6106 215.115 40.5889L215.127 40.7408C215.223 41.9715 215.072 43.096 214.673 44.1145C214.282 45.1245 213.667 45.9365 212.83 46.5503C212 47.1636 211.016 47.5146 209.879 47.6033C208.165 47.7369 206.729 47.2495 205.569 46.141C204.416 45.032 203.764 43.496 203.611 41.5332L203.599 41.3814ZM205.792 41.4689C205.901 42.8709 206.312 43.9712 207.025 44.7697C207.746 45.5677 208.651 45.9241 209.741 45.8391C210.84 45.7534 211.679 45.257 212.258 44.3498C212.837 43.4348 213.066 42.2023 212.945 40.6524C212.837 39.266 212.419 38.1702 211.69 37.365C210.968 36.5515 210.062 36.1873 208.972 36.2723C207.905 36.3555 207.077 36.8472 206.489 37.7472C205.901 38.6472 205.669 39.8878 205.792 41.4689Z" fill="#F9D090"/>
<path d="M67.114 108.337L66.179 99.794C66.0141 98.4434 65.7487 97.3034 65.3827 96.3741L57.1189 97.3832L56.563 93.7175L64.5603 92.741L62.8806 78.9857C62.9482 78.6528 63.1224 78.3069 63.4032 77.9479C63.8401 77.3896 64.2184 77.0909 64.5383 77.0518C64.8937 77.0084 65.2002 77.007 65.4577 77.0477C65.7152 77.0885 66.0121 77.3047 66.3485 77.6965C67.2037 79.9729 67.9199 83.4748 68.4971 88.202C68.6404 89.3749 68.8347 90.5236 69.0802 91.648C70.2003 91.3669 71.329 91.1569 72.4664 91.018C72.4664 91.018 73.3905 90.9052 75.2387 90.6795C75.914 90.597 76.5317 90.4855 77.0917 90.345L77.4005 94.2032L69.5905 94.9405L72.1031 113.302C71.4981 113.664 70.9645 113.873 70.5024 113.93C68.7253 114.147 67.5958 112.283 67.114 108.337ZM106.728 107.937C106.482 108.581 105.683 108.985 104.333 109.15C103.017 109.31 102.301 108.911 102.184 107.951C101.672 103.757 101.232 100.889 100.863 99.3465C100.122 95.9379 99.221 94.1721 98.1599 94.0491C95.54 93.864 93.4126 93.8713 91.7776 94.0709C90.1782 94.2663 88.906 94.9266 87.9613 96.052C87.0477 97.1376 86.4455 98.8524 86.1545 101.197C85.8948 103.501 85.8901 106.712 86.1404 110.83L82.0352 111.331C81.8589 109.297 81.6644 107.408 81.4517 105.667C81.239 103.925 80.9518 101.868 80.5899 99.4953C80.2237 97.087 79.8137 94.4677 79.3598 91.6372C78.7828 88.389 78.3576 85.6452 78.0841 83.406C77.8064 81.1312 77.6946 79.0346 77.749 77.1161C78.0219 76.3973 78.4961 75.9967 79.1714 75.9143C79.9889 75.8145 80.6656 76.0384 81.2014 76.5863C81.7329 77.0985 82.0447 77.5835 82.1366 78.0413L82.9442 86.8708C83.3479 90.1763 83.8095 92.627 84.329 94.2229C87.2675 91.6997 90.4428 90.2298 93.855 89.8131C94.9568 89.6786 96.1406 89.6242 97.4063 89.65C100.241 90.7107 102.163 91.9731 103.172 93.4372C103.662 94.2069 104.017 95.0474 104.237 95.9585C104.456 96.8696 104.656 97.9094 104.834 99.078C105.542 103.104 106.173 106.057 106.728 107.937ZM119.212 103.383C122.34 103.001 126.876 101.004 132.82 97.3923C133.211 97.3445 133.548 97.4476 133.831 97.7016C134.111 97.92 134.272 98.2069 134.315 98.5624C133.189 101.153 130.7 103.369 126.848 105.21C122.997 107.051 119.275 107.74 115.683 107.277C111.612 106.728 108.942 104.799 107.672 101.491C107.519 100.824 107.372 99.9224 107.233 98.785C107.095 97.6477 107.197 96.1201 107.54 94.2024C107.914 92.2449 108.71 90.344 109.928 88.4999C111.145 86.6557 112.655 85.1366 114.457 83.9426C116.26 82.7485 118.245 82.0192 120.413 81.7544C122.474 81.5027 124.871 81.9314 127.604 83.0407C128.895 83.5684 129.948 84.2154 130.763 84.9817C131.578 85.7479 132.04 86.5753 132.148 87.4639C132.179 87.7127 132.191 87.9637 132.186 88.2168C132.38 90.3936 131.499 91.8901 129.542 92.7062C128.684 93.0635 127.668 93.3137 126.495 93.457L118.779 94.0745C116.22 94.387 114.332 95.1767 113.116 96.4434C112.408 97.1432 111.968 98.1168 111.795 99.3643C113.079 102.49 115.551 103.83 119.212 103.383ZM126.69 85.7495C125.839 85.2763 124.972 84.9674 124.088 84.8228C123.205 84.6781 122.479 84.6405 121.91 84.71C121.341 84.7794 120.441 85.0877 119.209 85.635C117.973 86.1466 116.886 86.6943 115.947 87.2779C113.633 88.7147 112.552 90.0551 112.704 91.2992C115.578 91.2007 117.726 91.0647 119.148 90.8911C123.093 90.4094 125.718 89.7462 127.021 88.9016C127.831 88.442 128.203 87.9456 128.138 87.4125C128.06 86.7727 127.577 86.2184 126.69 85.7495ZM176.741 86.1852C180.651 85.7077 182.727 86.4643 182.97 88.4547C183.153 89.9475 182.281 91.8215 180.356 94.0767C177.482 97.4217 173.417 100.317 168.16 102.763C167.911 102.793 167.596 102.579 167.216 102.12C166.871 101.657 166.594 101.312 166.386 101.085C166.209 100.818 166.081 100.654 166.001 100.591C169.923 98.7415 173.083 96.6963 175.478 94.4558C177.099 92.9593 177.86 91.8022 177.76 90.9847C177.66 90.1672 176.562 89.8865 174.465 90.1426C172.368 90.3987 169.354 91.2717 165.424 92.7617C163.567 92.9163 161.887 92.4541 160.384 91.375C159.077 90.4163 158.356 89.3861 158.221 88.2843C158.082 87.1469 158.277 86.0771 158.803 85.0748C159.326 84.037 160.071 83.0443 161.037 82.0966C162.004 81.1489 163.156 80.2506 164.496 79.4016C167.775 77.3058 171.281 76.03 175.013 75.5743C176.114 75.4397 177.194 75.4161 178.251 75.5035C179.104 75.3994 179.647 75.7118 179.88 76.4409C180.113 77.1699 180.334 78.3875 180.543 80.0936C178.328 79.39 175.906 79.1987 173.276 79.5199C170.006 79.9192 167.385 80.9066 165.413 82.4821C163.365 84.0308 162.432 85.8402 162.613 87.9104C162.734 88.9056 163.524 89.3142 164.981 89.1363L168.821 88.2345C172.075 87.1157 174.715 86.4326 176.741 86.1852ZM186.459 91.7623C186.389 91.1936 186.24 90.4182 186.012 89.436C185.815 88.4139 185.607 87.303 185.389 86.1032C185.17 84.9034 184.985 83.6815 184.833 82.4375C184.681 81.1935 184.649 80.0431 184.736 78.9863C184.916 76.6195 185.735 75.3472 187.192 75.1692C188.222 75.3321 188.923 75.6072 189.295 75.9947C189.702 76.3778 189.945 76.8892 190.023 77.529C190.097 78.1332 190.03 78.917 189.823 79.8801C189.028 83.1156 188.782 85.9774 189.086 88.4654C189.186 89.2829 189.346 90.1472 189.565 91.0583C190.425 93.3703 192.525 94.3223 195.866 93.9143C197.608 93.7016 199.223 93.1977 200.714 92.4025C203.565 90.9361 205.432 89.3914 206.316 87.7683C206.436 86.0943 206.423 84.653 206.275 83.4445C206.123 82.2005 205.935 81.1052 205.712 80.1586C205.523 79.2076 205.289 78.1721 205.008 77.052C204.758 75.8921 204.53 74.6212 204.326 73.2394C204.762 72.9697 205.193 72.8088 205.619 72.7568C206.081 72.7003 206.572 72.8749 207.09 73.2806C207.644 73.6819 208.159 74.5028 208.635 75.7433C209.147 76.9794 209.563 78.4618 209.882 80.1904C210.197 81.8835 210.467 83.6541 210.693 85.5024C210.954 87.3463 211.191 89.1391 211.404 90.8807C211.612 92.5868 211.863 94.0531 212.157 95.2798C211.779 95.7228 211.394 95.9682 211.003 96.016C209.581 96.1896 208.359 94.8959 207.336 92.1349C206.922 92.5823 206.199 93.1576 205.166 93.8608C202.977 95.4268 200.308 96.6184 197.162 97.4356C196.566 97.5804 195.895 97.6984 195.149 97.7896C194.402 97.8807 193.443 97.8536 192.271 97.7081C191.134 97.5583 190.006 97.0288 188.884 96.1195C187.763 95.2103 186.955 93.7579 186.459 91.7623ZM234.682 81.2204C234.165 76.9907 233.555 73.9089 232.849 71.9749C233.069 71.407 232.61 71.1925 231.472 71.3314C230.264 71.479 228.737 71.9721 226.891 72.8107C225.046 73.6493 223.556 74.4445 222.421 75.1963C219.711 76.934 218.277 78.48 218.117 79.8341L219.888 94.3358L216.316 94.772C215.706 93.6199 215.061 90.2538 214.379 84.6735C213.772 79.6974 213.414 76.0256 213.305 73.658C213.232 71.2861 213.229 69.9337 213.296 69.6008C214.147 68.8837 214.856 68.4905 215.425 68.421C216.314 68.3125 216.886 69.3068 217.142 71.4039C217.242 72.2214 217.286 73.0276 217.275 73.8226C217.295 74.5777 217.322 75.0974 217.357 75.3817C222.599 70.449 226.801 67.7894 229.964 67.4032C233.554 66.9648 235.952 69.612 237.157 75.3448C237.618 77.3447 238.067 80.1396 238.505 83.7295L238.966 87.9479C239.157 89.5118 239.377 91.0181 239.626 92.4667C239.297 92.7233 239.026 92.8647 238.812 92.8907C238.701 92.8682 238.464 92.8431 238.1 92.8154C237.736 92.7877 237.267 92.7908 236.694 92.8247C236.165 91.4464 235.794 90.0308 235.58 88.5778C235.362 87.0893 235.178 85.7231 235.026 84.4791L234.682 81.2204Z" fill="#F9D090"/>
<line x1="145.889" y1="41.1207" x2="230.163" y2="42.7961" stroke="#F9D090" stroke-width="3"/>
</g>
<defs>
<clipPath id="clip0_513_289">
<rect width="261" height="144" fill="white"/>
</clipPath>
</defs>
</svg>
